<svg width="74" height="11" viewBox="0 0 74 11" fill="none" xmlns="http://www.w3.org/2000/svg">
<path d="M46.4343 3.09562C44.6653 3.09562 43.9809 3.56943 43.9809 4.11696C43.9809 4.5276 44.2231 4.79083 44.2863 4.85401C44.5179 4.7066 45.1813 4.32754 46.2342 4.32754C47.5714 4.32754 48.0452 4.9593 48.0452 5.64371V5.84376C44.9496 6.17017 43.3702 6.74928 43.3702 8.60244C43.3702 9.86596 44.3179 10.8136 45.6446 10.8136C46.9818 10.8136 47.7399 10.1187 48.0768 9.81331V10.6662H49.4246V5.59106C49.4351 3.94849 48.2453 3.09562 46.4343 3.09562ZM48.0452 8.6235C47.424 9.26579 46.7923 9.58167 45.9815 9.58167C45.2023 9.58167 44.7812 9.07626 44.7812 8.5498C44.7812 7.79169 45.3919 7.1494 48.0347 6.89669V8.6235H48.0452ZM70.7149 3.09562C68.9459 3.09562 68.2615 3.56943 68.2615 4.11696C68.2615 4.5276 68.5037 4.79083 68.5669 4.85401C68.7985 4.7066 69.4619 4.32754 70.5148 4.32754C71.852 4.32754 72.3259 4.9593 72.3259 5.64371V5.84376C69.2302 6.17017 67.6508 6.74928 67.6508 8.60244C67.6508 9.86596 68.5985 10.8136 69.9252 10.8136C71.2624 10.8136 72.0205 10.1187 72.3574 9.81331V10.6662H73.7052V5.59106C73.7052 3.94849 72.5154 3.09562 70.7149 3.09562ZM72.3259 8.6235C71.7046 9.26579 71.0729 9.58167 70.2621 9.58167C69.4829 9.58167 69.0618 9.07626 69.0618 8.5498C69.0618 7.79169 69.6725 7.1494 72.3153 6.89669V8.6235H72.3259ZM27.113 1.75839C26.6286 1.75839 26.2285 1.36881 26.2285 0.884462C26.2285 0.400114 26.6286 0 27.113 0C27.5973 0 27.9869 0.400114 27.9869 0.884462C27.9764 1.36881 27.5973 1.75839 27.113 1.75839ZM26.4075 10.6662V3.25356H27.7974V10.6662H26.4075ZM12.572 7.56004C14.6357 7.56004 17.3523 7.24416 17.3523 5.07512C17.3523 3.99061 16.4468 3.09562 14.92 3.09562C12.3509 3.09562 11.119 4.89613 11.119 7.07569C11.119 9.16049 12.4667 10.8241 14.8674 10.8241C16.2046 10.8241 17.2049 10.4556 17.2049 9.69749C17.2049 9.33949 16.9733 9.0552 16.9206 9.01308C16.7837 9.09732 16.0677 9.5922 14.9516 9.5922C13.3828 9.58167 12.7299 8.57085 12.572 7.56004ZM12.5615 6.48605C12.6246 5.391 13.3301 4.2749 14.8569 4.2749C15.5413 4.2749 15.9519 4.66448 15.9519 5.1383C15.9519 6.20176 14.025 6.48605 12.5615 6.48605ZM24.7228 10.4451C24.4385 10.5188 23.5435 10.8241 22.2379 10.8241C19.3845 10.8241 18.2789 9.2342 18.2789 7.09675C18.2789 4.39072 19.8162 3.09562 21.5535 3.09562C22.5222 3.09562 23.1645 3.40097 23.3435 3.4852V0.178998H24.7123V10.4451H24.7228ZM23.354 4.73819C23.1855 4.63289 22.5854 4.32754 21.8167 4.32754C20.5427 4.32754 19.6582 5.21201 19.6582 7.0441C19.6582 8.67615 20.4795 9.58167 22.2379 9.58167C22.6486 9.58167 23.0276 9.51849 23.354 9.42373V4.73819ZM1.44252 6.94934C1.44252 5.22254 2.33751 4.32754 3.70632 4.32754C4.73819 4.32754 5.41207 4.71713 5.63318 4.85401C5.80165 4.69607 5.93853 4.41178 5.93853 4.11696C5.93853 3.62208 5.35942 3.09562 3.65367 3.09562C1.66363 3.09562 0 4.43284 0 6.95987C0 9.43426 1.50569 10.8136 3.49573 10.8136C4.68554 10.8136 5.64371 10.4345 5.91747 10.2871V8.91832C5.61212 9.12891 4.6329 9.58167 3.72738 9.58167C2.42174 9.58167 1.44252 8.68668 1.44252 6.94934ZM40.58 6.87564C41.475 5.86482 42.2752 4.66448 42.8438 3.19038L41.5697 2.72709C40.759 4.86454 39.5376 6.30705 38.0635 7.49686V0.178998H36.6841V10.6662H38.0635V9.11838C38.6005 8.73932 39.0743 8.34974 39.5902 7.87592L40.8537 10.0134C41.1696 10.5398 41.5908 10.8241 42.2225 10.8241C42.5805 10.8241 42.7806 10.7083 42.8648 10.6662L40.58 6.87564ZM8.4761 4.19066C8.4761 3.46414 8.06545 3.09562 7.51793 3.09562C7.39158 3.09562 7.2547 3.11667 7.11782 3.16932V10.6662H8.49716V6.27547C8.88674 5.34889 9.82385 4.48548 11.0452 4.48548V3.09562C9.72908 3.09562 8.9815 3.72737 8.4761 4.67501V4.19066ZM52.4992 4.19066C52.4992 3.46414 52.0885 3.09562 51.541 3.09562C51.4146 3.09562 51.2778 3.11667 51.1409 3.16932V10.6662H52.5202V6.27547C52.9098 5.34889 53.8469 4.48548 55.0683 4.48548V3.09562C53.7521 3.09562 53.0046 3.72737 52.4992 4.67501V4.19066ZM57.3321 4.22225V4.19066C57.3321 3.46414 56.9425 3.09562 56.395 3.09562C56.2686 3.09562 56.1318 3.11667 55.9949 3.16932V10.6662H57.3742V5.52788C57.7849 4.96983 58.6167 4.31701 59.3537 4.31701C60.1645 4.31701 60.5646 4.84348 60.5646 5.60159V10.6557H61.9439V5.52788C62.4178 4.8856 63.1864 4.31701 63.9235 4.31701C64.7342 4.31701 65.1343 4.84348 65.1343 5.60159V10.6557H66.5137V5.52788C66.5137 4.12749 65.8819 3.08509 64.1762 3.08509C63.1338 3.08509 62.3651 3.64314 61.7439 4.32754C61.5333 3.83267 61.0595 3.08509 59.6064 3.08509C58.6062 3.09562 57.8902 3.61155 57.3321 4.22225ZM29.5031 1.46357V8.64456C29.5031 10.066 30.3876 10.8241 31.6932 10.8241C32.3145 10.8241 32.8725 10.6662 32.9989 10.6241V9.43426C32.883 9.46584 32.504 9.58167 31.9986 9.58167C31.2299 9.58167 30.8825 9.10785 30.8825 8.47609V4.41178H32.7988V3.25356H30.8825V2.49545C30.8825 1.76892 30.4508 1.4004 29.8927 1.4004C29.7664 1.38987 29.6295 1.41093 29.5031 1.46357Z" fill="#008600"/>
<path d="M74 2.06373C74 2.36908 73.7578 2.61125 73.4419 2.61125C73.1261 2.61125 72.8839 2.36908 72.8839 2.06373C72.8839 1.75838 73.1366 1.52673 73.4419 1.52673C73.7578 1.52673 74 1.76891 74 2.06373ZM73.0313 2.06373C73.0313 2.3059 73.2103 2.49543 73.4525 2.49543C73.6946 2.49543 73.8631 2.3059 73.8631 2.06373C73.8631 1.82155 73.6841 1.63203 73.4419 1.63203C73.2103 1.63203 73.0313 1.83208 73.0313 2.06373ZM73.3577 2.34802H73.2314V1.81103C73.284 1.8005 73.3472 1.78997 73.4419 1.78997C73.5472 1.78997 73.5894 1.81103 73.6315 1.83208C73.6631 1.85314 73.6841 1.89526 73.6841 1.94791C73.6841 2.01108 73.642 2.0532 73.5683 2.07426V2.08479C73.6209 2.10585 73.6525 2.14796 73.6631 2.22167C73.6841 2.3059 73.6947 2.33749 73.7052 2.35855H73.5683C73.5472 2.33749 73.5367 2.28484 73.5262 2.22167C73.5157 2.15849 73.4841 2.13743 73.4104 2.13743H73.3472V2.34802H73.3577ZM73.3682 2.04267H73.4314C73.5051 2.04267 73.5578 2.02161 73.5578 1.95844C73.5578 1.90579 73.5262 1.8742 73.4419 1.8742C73.4104 1.8742 73.3893 1.8742 73.3682 1.88473V2.04267Z" fill="#008600"/>
</svg>
